<mxfile host="65bd71144e">
    <diagram id="CDZbm4uTaMZAimFO4HyF" name="第 1 页">
        <mxGraphModel dx="1366" dy="704" grid="1" gridSize="10" guides="1" tooltips="1" connect="1" arrows="1" fold="1" page="1" pageScale="1" pageWidth="827" pageHeight="1169" math="0" shadow="0">
            <root>
                <mxCell id="0"/>
                <mxCell id="1" parent="0"/>
                <mxCell id="88" value="Sig Create Label id&lt;br&gt;Sig create document&lt;br&gt;....." style="shape=partialRectangle;html=1;top=1;align=left;dashed=1;" parent="1" vertex="1">
                    <mxGeometry x="170" y="80" width="159" height="60" as="geometry"/>
                </mxCell>
                <mxCell id="87" value="Show Label&lt;br&gt;Update Label" style="shape=partialRectangle;html=1;top=1;align=left;dashed=1;" parent="1" vertex="1">
                    <mxGeometry x="390" y="680" width="100" height="40" as="geometry"/>
                </mxCell>
                <mxCell id="86" value="Create Docuement&lt;br&gt;Save Document&lt;br&gt;Create Label&lt;br&gt;Update Label text&lt;br&gt;sig touchedLabel list" style="shape=partialRectangle;html=1;top=1;align=left;dashed=1;" parent="1" vertex="1">
                    <mxGeometry x="155" y="710" width="150" height="80" as="geometry"/>
                </mxCell>
                <mxCell id="85" value="Sig Change Label text" style="shape=partialRectangle;html=1;top=1;align=left;dashed=1;" parent="1" vertex="1">
                    <mxGeometry x="541" y="475" width="150" height="40" as="geometry"/>
                </mxCell>
                <mxCell id="84" value="Show Label&lt;br&gt;Update Label" style="shape=partialRectangle;html=1;top=1;align=left;dashed=1;" parent="1" vertex="1">
                    <mxGeometry x="420" y="420" width="100" height="40" as="geometry"/>
                </mxCell>
                <mxCell id="83" value="Show Label&lt;br&gt;Update Label" style="shape=partialRectangle;html=1;top=1;align=left;dashed=1;" parent="1" vertex="1">
                    <mxGeometry x="390" y="580" width="100" height="40" as="geometry"/>
                </mxCell>
                <mxCell id="80" value="Show Label&lt;br&gt;Update Label" style="shape=partialRectangle;html=1;top=1;align=left;dashed=1;" parent="1" vertex="1">
                    <mxGeometry x="205" y="500" width="100" height="40" as="geometry"/>
                </mxCell>
                <mxCell id="78" value="Sig Select Label" style="shape=partialRectangle;html=1;top=1;align=left;dashed=1;" parent="1" vertex="1">
                    <mxGeometry x="541" y="210" width="100" height="40" as="geometry"/>
                </mxCell>
                <mxCell id="77" value="Show Label&lt;br&gt;Update Label" style="shape=partialRectangle;html=1;top=1;align=left;dashed=1;" parent="1" vertex="1">
                    <mxGeometry x="400" y="280" width="100" height="40" as="geometry"/>
                </mxCell>
                <mxCell id="2" value="MainApplication" style="ellipse;shape=umlControl;whiteSpace=wrap;html=1;" parent="1" vertex="1">
                    <mxGeometry x="35" y="140" width="70" height="80" as="geometry"/>
                </mxCell>
                <mxCell id="3" value="MainWindow" style="ellipse;shape=umlControl;whiteSpace=wrap;html=1;" parent="1" vertex="1">
                    <mxGeometry x="290" y="20" width="70" height="80" as="geometry"/>
                </mxCell>
                <mxCell id="5" value="MainWindow" style="shape=umlBoundary;whiteSpace=wrap;html=1;" parent="1" vertex="1">
                    <mxGeometry x="450" y="20" width="100" height="80" as="geometry"/>
                </mxCell>
                <mxCell id="24" style="edgeStyle=none;html=1;" parent="1" source="7" target="3" edge="1">
                    <mxGeometry relative="1" as="geometry"/>
                </mxCell>
                <mxCell id="7" value="menubar" style="shape=umlBoundary;whiteSpace=wrap;html=1;" parent="1" vertex="1">
                    <mxGeometry x="450" y="110" width="100" height="80" as="geometry"/>
                </mxCell>
                <mxCell id="25" style="edgeStyle=none;html=1;" parent="1" source="10" target="15" edge="1">
                    <mxGeometry relative="1" as="geometry"/>
                </mxCell>
                <mxCell id="10" value="DocTree" style="ellipse;shape=umlControl;whiteSpace=wrap;html=1;" parent="1" vertex="1">
                    <mxGeometry x="465" y="230" width="70" height="80" as="geometry"/>
                </mxCell>
                <mxCell id="28" style="edgeStyle=none;html=1;" parent="1" source="12" target="10" edge="1">
                    <mxGeometry relative="1" as="geometry"/>
                </mxCell>
                <mxCell id="12" value="docTree" style="shape=umlBoundary;whiteSpace=wrap;html=1;" parent="1" vertex="1">
                    <mxGeometry x="600" y="230" width="100" height="80" as="geometry"/>
                </mxCell>
                <mxCell id="15" value="DocTree" style="ellipse;shape=umlControl;whiteSpace=wrap;html=1;dashed=1;" parent="1" vertex="1">
                    <mxGeometry x="290" y="140" width="70" height="80" as="geometry"/>
                </mxCell>
                <mxCell id="17" value="1" style="endArrow=open;html=1;endSize=12;startArrow=diamondThin;startSize=14;startFill=0;edgeStyle=orthogonalEdgeStyle;align=left;verticalAlign=bottom;" parent="1" source="3" target="2" edge="1">
                    <mxGeometry x="-1" y="3" relative="1" as="geometry">
                        <mxPoint x="130" y="70" as="sourcePoint"/>
                        <mxPoint x="290" y="70" as="targetPoint"/>
                    </mxGeometry>
                </mxCell>
                <mxCell id="18" value="1" style="endArrow=open;html=1;endSize=12;startArrow=diamondThin;startSize=14;startFill=0;edgeStyle=orthogonalEdgeStyle;align=left;verticalAlign=bottom;" parent="1" source="15" target="2" edge="1">
                    <mxGeometry x="-1" y="3" relative="1" as="geometry">
                        <mxPoint x="200" y="280" as="sourcePoint"/>
                        <mxPoint x="360" y="280" as="targetPoint"/>
                    </mxGeometry>
                </mxCell>
                <mxCell id="19" value="1" style="endArrow=open;html=1;endSize=12;startArrow=diamondThin;startSize=14;startFill=0;edgeStyle=orthogonalEdgeStyle;align=left;verticalAlign=bottom;" parent="1" source="5" target="3" edge="1">
                    <mxGeometry x="-1" relative="1" as="geometry">
                        <mxPoint x="300" y="190" as="sourcePoint"/>
                        <mxPoint x="115" y="190" as="targetPoint"/>
                        <mxPoint as="offset"/>
                    </mxGeometry>
                </mxCell>
                <mxCell id="26" value="Use" style="endArrow=open;endSize=12;dashed=1;html=1;entryX=0.874;entryY=0.876;entryDx=0;entryDy=0;entryPerimeter=0;" parent="1" source="10" target="3" edge="1">
                    <mxGeometry width="160" relative="1" as="geometry">
                        <mxPoint x="240" y="350" as="sourcePoint"/>
                        <mxPoint x="400" y="350" as="targetPoint"/>
                    </mxGeometry>
                </mxCell>
                <mxCell id="36" style="edgeStyle=none;html=1;" parent="1" source="34" target="2" edge="1">
                    <mxGeometry relative="1" as="geometry">
                        <mxPoint x="356.3404848390069" y="417.8070936585268" as="targetPoint"/>
                    </mxGeometry>
                </mxCell>
                <mxCell id="34" value="ConstructTree" style="ellipse;shape=umlControl;whiteSpace=wrap;html=1;" parent="1" vertex="1">
                    <mxGeometry x="466" y="350" width="70" height="80" as="geometry"/>
                </mxCell>
                <mxCell id="47" style="edgeStyle=none;html=1;" parent="1" source="45" target="2" edge="1">
                    <mxGeometry relative="1" as="geometry">
                        <mxPoint x="345.34333678016833" y="432.54933884826914" as="targetPoint"/>
                    </mxGeometry>
                </mxCell>
                <mxCell id="45" value="V3d" style="ellipse;shape=umlControl;whiteSpace=wrap;html=1;" parent="1" vertex="1">
                    <mxGeometry x="465" y="530" width="70" height="80" as="geometry"/>
                </mxCell>
                <mxCell id="48" style="edgeStyle=none;html=1;" parent="1" source="46" target="2" edge="1">
                    <mxGeometry relative="1" as="geometry">
                        <mxPoint x="341.30112514914185" y="435.39672889527947" as="targetPoint"/>
                    </mxGeometry>
                </mxCell>
                <mxCell id="46" value="V2d" style="ellipse;shape=umlControl;whiteSpace=wrap;html=1;" parent="1" vertex="1">
                    <mxGeometry x="465" y="630" width="70" height="80" as="geometry"/>
                </mxCell>
                <mxCell id="57" style="edgeStyle=none;html=1;" parent="1" source="56" target="2" edge="1">
                    <mxGeometry relative="1" as="geometry"/>
                </mxCell>
                <mxCell id="56" value="DocApp" style="ellipse;shape=umlControl;whiteSpace=wrap;html=1;" parent="1" vertex="1">
                    <mxGeometry x="295" y="740" width="70" height="80" as="geometry"/>
                </mxCell>
                <mxCell id="64" style="edgeStyle=none;html=1;" parent="1" source="62" target="34" edge="1">
                    <mxGeometry relative="1" as="geometry"/>
                </mxCell>
                <mxCell id="62" value="TreeItem" style="shape=umlBoundary;whiteSpace=wrap;html=1;" parent="1" vertex="1">
                    <mxGeometry x="600" y="410" width="100" height="80" as="geometry"/>
                </mxCell>
                <mxCell id="65" style="edgeStyle=none;html=1;" parent="1" source="63" target="45" edge="1">
                    <mxGeometry relative="1" as="geometry"/>
                </mxCell>
                <mxCell id="63" value="V3d" style="shape=umlBoundary;whiteSpace=wrap;html=1;" parent="1" vertex="1">
                    <mxGeometry x="600" y="550" width="100" height="80" as="geometry"/>
                </mxCell>
                <mxCell id="67" style="edgeStyle=none;html=1;" parent="1" source="66" target="46" edge="1">
                    <mxGeometry relative="1" as="geometry"/>
                </mxCell>
                <mxCell id="66" value="V2d" style="shape=umlBoundary;whiteSpace=wrap;html=1;" parent="1" vertex="1">
                    <mxGeometry x="600" y="630" width="100" height="80" as="geometry"/>
                </mxCell>
                <mxCell id="69" style="edgeStyle=none;html=1;" parent="1" source="68" target="56" edge="1">
                    <mxGeometry relative="1" as="geometry"/>
                </mxCell>
                <mxCell id="68" value="Document" style="ellipse;shape=umlEntity;whiteSpace=wrap;html=1;" parent="1" vertex="1">
                    <mxGeometry x="470" y="740" width="80" height="80" as="geometry"/>
                </mxCell>
                <mxCell id="72" style="edgeStyle=none;html=1;" parent="1" source="71" target="34" edge="1">
                    <mxGeometry relative="1" as="geometry"/>
                </mxCell>
                <mxCell id="71" value="tlabel&amp;amp;treeitem" style="ellipse;shape=umlEntity;whiteSpace=wrap;html=1;" parent="1" vertex="1">
                    <mxGeometry x="620" y="320" width="80" height="80" as="geometry"/>
                </mxCell>
                <mxCell id="89" value="A &amp;lt;---- B: B为A的组件" style="shape=note2;boundedLbl=1;whiteSpace=wrap;html=1;size=25;verticalAlign=top;align=center;" parent="1" vertex="1">
                    <mxGeometry x="580" y="65" width="310" height="90" as="geometry"/>
                </mxCell>
                <mxCell id="90" value="图例说明" style="resizeWidth=1;part=1;strokeColor=none;fillColor=none;align=left;spacingLeft=5;" parent="89" vertex="1">
                    <mxGeometry width="310" height="25" relative="1" as="geometry"/>
                </mxCell>
                <mxCell id="93" value="text :" style="shape=partialRectangle;html=1;top=1;align=left;dashed=1;" parent="89" vertex="1">
                    <mxGeometry x="38.75" y="56.25" width="58.125" height="22.5" as="geometry"/>
                </mxCell>
                <mxCell id="94" value="sig 上传数据, 其余为被调用接口" style="text;strokeColor=none;fillColor=none;align=left;verticalAlign=top;spacingLeft=4;spacingRight=4;overflow=hidden;rotatable=0;points=[[0,0.5],[1,0.5]];portConstraint=eastwest;" parent="89" vertex="1">
                    <mxGeometry x="96.875" y="56.25" width="193.75" height="29.25" as="geometry"/>
                </mxCell>
            </root>
        </mxGraphModel>
    </diagram>
</mxfile>